<svg id="Layer_1" data-name="Layer 1" xmlns="http://www.w3.org/2000/svg" xmlns:xlink="http://www.w3.org/1999/xlink" width="104" height="104" viewBox="0 0 104 104"><defs><clipPath id="clip-path"><rect x="10.89" width="82.22" height="82.22" style="fill:none"/></clipPath></defs><title>Lidl-Logo_GR</title><path d="M93.11,92.65V0H10.89V104H81.56a11.38,11.38,0,0,0,11.5-11A1,1,0,0,0,93.11,92.65Z" style="fill:#fff"/><path d="M52.1,101.78V82.38H90.64V92.6a9.65,9.65,0,0,1-9.72,9.23l-28.82,0" style="fill:#107dc0"/><rect x="13.41" y="82.48" width="4.15" height="4.15" style="fill:#107dc0"/><rect x="13.41" y="88.85" width="4.15" height="4.15" style="fill:#107dc0"/><rect x="19.87" y="82.48" width="4.15" height="4.15" style="fill:#107dc0"/><rect x="19.87" y="88.85" width="4.15" height="4.15" style="fill:#107dc0"/><rect x="23.33" y="82.48" width="25.76" height="2.17" style="fill:#107dc0"/><rect x="23.97" y="86.58" width="25.12" height="2.22" style="fill:#107dc0"/><rect x="23.57" y="90.72" width="25.47" height="2.22" style="fill:#107dc0"/><rect x="13.36" y="95.26" width="35.68" height="2.22" style="fill:#107dc0"/><rect x="13.36" y="99.61" width="35.73" height="2.22" style="fill:#107dc0"/><path d="M56.69,98.72a2.87,2.87,0,0,1-.94-.15,2.29,2.29,0,0,1-1.53-1.73,4.81,4.81,0,0,1,1.09-4.29,8.84,8.84,0,0,1,3.6-2.71A3.2,3.2,0,0,1,57,88a2.5,2.5,0,0,1,.64-2.52,4.89,4.89,0,0,1,4.54-1.38l-.25,1.09a3.81,3.81,0,0,0-3.5,1A1.42,1.42,0,0,0,58,87.61c.25.79,1.38,1.43,3.11,1.78L61,90.48a7,7,0,0,0-4.84,2.71,3.87,3.87,0,0,0-.89,3.36,1.25,1.25,0,0,0,.84,1c1.09.35,2.91-.44,3.85-1.18l.69.89A8,8,0,0,1,56.69,98.72Z" style="fill:#fff"/><path d="M67.74,97.63l-1-.3h0a13.82,13.82,0,0,0,.39-3.8c-1.48.89-4.34,2.62-4.79,2.86l-.54-.94c2.07-1.23,5.23-3.11,5.58-3.36L67.6,92c.15-2.22-.1-4.44-1.14-5.58A1.41,1.41,0,0,0,65,85.89a2.33,2.33,0,0,0-1.68,1.38l-1-.44a3.51,3.51,0,0,1,2.47-2,2.66,2.66,0,0,1,2.42.84c2.76,3.11.79,11,.49,12Z" style="fill:#fff"/><path d="M75.15,96.79l-1.09-.2a20.78,20.78,0,0,0,.15-3.9,33.13,33.13,0,0,0-3.75,3.41l-.79-.79a31.92,31.92,0,0,1,4-3.7,4.63,4.63,0,0,0,.59-.44l.15-.15a12,12,0,0,0-.89-4.59,2.1,2.1,0,0,0-2-1.28,1.93,1.93,0,0,0-1.68,1.43l-1-.35a3,3,0,0,1,2.67-2.17,3.25,3.25,0,0,1,3,1.92C75.94,88.75,75.74,94.08,75.15,96.79Z" style="fill:#fff"/><path d="M78.4,96.5h0a1.77,1.77,0,0,1-.54-.1,2.34,2.34,0,0,1-1.78-1.73c-.39-1.78,1.73-3.85,2-4.1a2.13,2.13,0,0,1,3,.2,2.39,2.39,0,0,1,.64,1.68C81.61,93.64,80.23,96.5,78.4,96.5Zm1-5.38a.82.82,0,0,0-.59.25c-.49.49-1.88,2.07-1.68,3.06,0,.15.15.59,1.09.89s2.32-2,2.37-3a1.27,1.27,0,0,0-.35-.89A1.29,1.29,0,0,0,79.39,91.12Z" style="fill:#fff"/><path d="M82.55,96.75l-.1-1.09c.2,0,.44,0,.69,0,.84,0,2.07,0,2.52-.54a.89.89,0,0,0,.2-.64c0-.39-.2-.49-.89-.74a2.54,2.54,0,0,1-1.43-1,1.7,1.7,0,0,1,.1-2,1.55,1.55,0,0,1,1.92-.35l-.44,1c-.3-.1-.54-.1-.64,0a.58.58,0,0,0,0,.74,1.41,1.41,0,0,0,.89.49c.64.25,1.53.54,1.63,1.73a1.76,1.76,0,0,1-.49,1.43c-.79.84-2.22.89-3.31.94A3,3,0,0,1,82.55,96.75Z" style="fill:#fff"/><path d="M81.36,88.21l-1.09-.15A7,7,0,0,1,81,86c.2-.44.35-.84.49-1.23l1,.3A11.49,11.49,0,0,1,82,86.48,7.15,7.15,0,0,0,81.36,88.21Z" style="fill:#fff"/><path d="M80.72,96.89a4.82,4.82,0,0,1-.35-3.75l1,.3a3.85,3.85,0,0,0,.25,2.86Z" style="fill:#fff"/><rect x="10.89" width="82.22" height="82.22" style="fill:#fff"/><rect x="13.22" y="2.33" width="77.57" height="77.57" style="fill:#06507f"/><g style="clip-path:url(#clip-path)"><path d="M52,6.71A34.4,34.4,0,1,0,86.4,41.12,34.41,34.41,0,0,0,52,6.71" style="fill:#fff100;fill-rule:evenodd"/><polygon points="49.86 42.08 43.79 36.01 36.79 43.02 36.79 45.38 38.55 43.6 43.44 48.5 41.63 50.3 42.81 51.49 52.58 41.69 52.58 39.35 49.86 42.08" style="fill:#bb251f;fill-rule:evenodd"/><polygon points="21.51 34.73 32.33 34.73 32.33 37.06 30.52 37.06 30.52 44.61 36.79 41.12 36.79 47.52 21.51 47.52 21.51 45.17 23.32 45.17 23.32 37.06 21.51 37.06 21.51 34.73" style="fill:#06507f;fill-rule:evenodd"/><polygon points="67.13 34.73 67.13 37.06 68.94 37.06 68.94 45.17 67.13 45.17 67.13 47.52 82.42 47.52 82.42 41.12 76.14 44.61 76.14 37.06 77.95 37.06 77.95 34.73 67.13 34.73" style="fill:#06507f;fill-rule:evenodd"/><path d="M42.9,27.46A3.85,3.85,0,1,1,39,31.3a3.84,3.84,0,0,1,3.85-3.84" style="fill:#bb251f;fill-rule:evenodd"/><path d="M52,4.38A36.73,36.73,0,1,0,88.73,41.12,36.74,36.74,0,0,0,52,4.38m0,71.13A34.4,34.4,0,1,1,86.4,41.12,34.41,34.41,0,0,1,52,75.52" style="fill:#bb251f;fill-rule:evenodd"/><path d="M61.09,34.73H50.78v2.34h1.8v8.11h-1.8v2.35H61.09c7.63,0,7.7-12.79,0-12.79" style="fill:#06507f;fill-rule:evenodd"/><path d="M59.65,43.53h-.51V38.7h.43c2.26,0,2.26,4.84.08,4.83" style="fill:#ffec00;fill-rule:evenodd"/></g></svg>